# AST/ASF file generated using VICON BodyLanguage
# -----------------------------------------------
:version 1.10
:name VICON
:units
  mass 1.0
  length 0.45
  angle deg
:documentation
   .ast/.asf automatically generated from VICON data using
   VICON BodyBuilder and BodyLanguage model FoxedUp or BRILLIANT.MOD
:root
   order TX TY TZ RX RY RZ
   axis XYZ
   position 0 0 0  
   orientation 0 0 0 
:bonedata
  begin
     id 1 
     name lhipjoint
     direction 0.756833 -0.6125 0.228138 
     length 2.53827 
     axis 0 0 0  XYZ
  end
  begin
     id 2 
     name lfemur
     direction 0.34202 -0.939693 0  
     length 6.51821  
     axis 0 0 20  XYZ
    dof rx ry rz
    limits (-160.0 20.0)
           (-70.0 70.0)
           (-60.0 70.0)
  end
  begin
     id 3 
     name ltibia
     direction 0.34202 -0.939693 0   
     length 6.99902   
     axis 0 0 20   XYZ
    dof rx
    limits (-10.0 170.0)
  end
  begin
     id 4 
     name lfoot
     direction 0.0951515 -0.261427 0.960522   
     length 1.92102   
     axis -90 7.62852e-016 20   XYZ
    dof rx rz
    limits (-45.0 90.0)
           (-70.0 20.0)
  end
  begin
     id 5 
     name ltoes
     direction 1.53539e-011 -4.21781e-011 1   
     length 0.964376   
     axis -90 7.62852e-016 20   XYZ
    dof rx
    limits (-90.0 20.0)
  end
  begin
     id 6 
     name rhipjoint
     direction -0.752153 -0.617542 0.230017   
     length 2.51754  
     axis 0 0 0  XYZ 
  end
  begin
     id 7 
     name rfemur
     direction -0.34202 -0.939693 0   
     length 6.82377   
     axis 0 0 -20   XYZ
    dof rx ry rz
    limits (-160.0 20.0)
           (-70.0 70.0)
           (-70.0 60.0)
  end
  begin
     id 8 
     name rtibia
     direction -0.34202 -0.939693 0   
     length 6.98689   
     axis 0 0 -20   XYZ
    dof rx
    limits (-10.0 170.0)
 end
 begin
     id 9 
     name rfoot
     direction -0.0900426 -0.24739 0.964723   
     length 2.03215  
     axis -90 -7.62852e-016 -20   XYZ
    dof rx rz
    limits (-45.0 90.0)
           (-20.0 70.0)
  end
  begin
     id 10 
     name rtoes
     direction -1.53466e-011 -4.22206e-011 1   
     length 1.0197   
     axis -90 -7.62852e-016 -20   XYZ
    dof rx
    limits (-90.0 20.0)
  end
  begin
     id 11 
     name lowerback
     direction 0.0184183 0.995705 -0.0907278   
     length 2.019   
     axis 0 0 0   XYZ
    dof rx ry rz
    limits (-20.0 45.0)
           (-30.0 30.0)
           (-30.0 30.0)
  end
  begin
     id 12 
     name upperback
     direction 0.00281055 0.998777 0.0493607   
     length 1.99623   
     axis 0 0 0   XYZ
    dof rx ry rz
    limits (-20.0 45.0)
           (-30.0 30.0)
           (-30.0 30.0)
  end
  begin
     id 13 
     name thorax
     direction -0.00665507 0.995706 0.092331   
     length 2.02811   
     axis 0 0 0   XYZ
    dof rx ry rz
    limits (-20.0 45.0)
           (-30.0 30.0)
           (-30.0 30.0)
  end
  begin
     id 14 
     name lowerneck
     direction -0.0960965 0.994358 0.0449225   
     length 1.71265   
     axis 0 0 0   XYZ
    dof rx ry rz
    limits (-20.0 45.0)
           (-30.0 30.0)
           (-30.0 30.0)
  end
  begin
     id 15 
     name upperneck
     direction 0.13642 0.985357 -0.102278   
     length 1.73016   
     axis 0 0 0   XYZ
    dof rx ry rz
    limits (-20.0 45.0)
           (-30.0 30.0)
           (-30.0 30.0)
  end
  begin
     id 16
     name head
     direction 0.0556079 0.997632 -0.040479  
     length 1.74275  
     axis 0 0 0   XYZ
    dof rx ry rz
    limits (-20.0 45.0)
           (-30.0 30.0)
           (-30.0 30.0)
  end
  begin
     id 17 
     name lclavicle
     direction 0.90877 0.417247 -0.00652364  
     length 3.25514  
     axis 0 0 0   XYZ
    dof ry rz
    limits (-20.0 10.0)
           (0.0 20.0)
  end
  begin
     id 18 
     name lhumerus
     direction 1 -4.48949e-011 8.31417e-028   
     length 4.84834   
     axis 180 -30 -90   XYZ
    dof rx ry rz
    limits (-60.0 90.0)
           (-90.0 90.0)
           (-90.0 90.0)
  end
  begin
     id 19
     name lradius
     direction 1 -4.48984e-011 3.45616e-027   
     length 2.99713   
     axis 180 -30 -90   XYZ
    dof rx
    limits (-10.0 170.0)
  end
  begin
     id 20
     name lwrist
     direction 1 -4.4891e-011 4.0479e-027   
     length 1.49857   
     axis -1.61768e-015 90 90   XYZ
    dof ry
    limits (-180.0 0.0)
 end
  begin
     id 21 
     name lhand
     direction 1 -4.49025e-011 8.0958e-027   
     length 0.693987   
     axis -5.16581e-015 90 90   XYZ
    dof rx rz
    limits (-90.0 90.0)
           (-45.0 45.0)
  end
  begin
     id 22 
     name lfingers
     direction 1 -4.4888e-011 1.61916e-026   
     length 0.55951   
     axis -1.03316e-014 90 90   XYZ
    dof rx
    limits (0.0 90.0)
  end
  begin
     id 23
     name lthumb
     direction 0.707107 -6.3493e-011 0.707107   
     length 0.803348   
     axis -90 45 2.85299e-015   XYZ
    dof rx rz
    limits (-45.0 45.0)
           (-45.0 45.0)
  end
  begin
     id 24 
     name rclavicle
     direction -0.906655 0.41906 0.0486307   
     length 3.3311  
     axis 0 0 0   XYZ 
    dof ry rz
    limits (-10.0 20.0)
           (-20.0 0.0)
  end
  begin
     id 25 
     name rhumerus
     direction -1 -4.48959e-011 6.37764e-018  
     length 4.93457   
     axis 180 30 90   XYZ
    dof rx ry rz
    limits (-90.0 60.0)
           (-90.0 90.0)
           (-90.0 90.0)
  end
  begin
     id 26 
     name rradius
     direction -1 -4.48957e-011 2.20847e-027   
     length 3.3443   
     axis 180 30 90   XYZ
    dof rx
    limits (-10.0 170.0)
  end
  begin
     id 27 
     name rwrist
     direction -1 -4.49008e-011 4.0479e-027   
     length 1.67215   
     axis -1.61768e-015 -90 -90   XYZ
    dof ry
    limits (-180.0 0.0)
  end
  begin
     id 28
     name rhand
     direction -1 -4.49013e-011 8.0958e-027   
     length 0.677363   
     axis -5.16581e-015 -90 -90   XYZ
    dof rx rz
    limits (-90.0 90.0)
           (-45.0 45.0)
  end
  begin
     id 29
     name rfingers
     direction -1 -4.48832e-011 1.61916e-026   
     length 0.546107   
     axis -1.03316e-014 -90 -90   XYZ
    dof rx
    limits (0.0 90.0)
  end
  begin
     id 30
     name rthumb
     direction -0.707107 -6.34895e-011 0.707107   
     length 0.784104   
     axis -90 -45 -2.85299e-015   XYZ
    dof rx rz
    limits (-45.0 45.0)
           (-45.0 45.0)
  end
:hierarchy
  begin
    root lhipjoint rhipjoint lowerback
    lhipjoint lfemur
    lfemur ltibia
    ltibia lfoot
    lfoot ltoes
    rhipjoint rfemur
    rfemur rtibia
    rtibia rfoot
    rfoot rtoes
    lowerback upperback
    upperback thorax
    thorax lowerneck lclavicle rclavicle
    lowerneck upperneck
    upperneck head
    lclavicle lhumerus
    lhumerus lradius
    lradius lwrist
    lwrist lhand lthumb
    lhand lfingers
    rclavicle rhumerus
    rhumerus rradius
    rradius rwrist
    rwrist rhand rthumb
    rhand rfingers
  end

#!OML:ASF H:\Terrain\Patient Classification 1\junglegym\FridayTest\junglegym.ASF
:FULLY-SPECIFIED
:DEGREES
27
root 7.41352 18.3414 -0.588318 -4.32943 -80.1228 29.0028
lowerback 2.78 -3.319 0.61829
upperback -9.23254 -4.59377 1.32107
thorax -11.3657 -2.32732 1.67464
lowerneck -4.60679 -1.21015 -10.5049
upperneck -8.44235 -1.15985 6.35603
head -1.83395 -0.457601 4.00153
rclavicle 2.23633e-014 2.94201e-014
rhumerus 79.2805 2.19366 -51.0662
rradius 37.4839
rwrist 5.64966
rhand -35.0855 53.9716
rfingers 7.12502
rthumb -8.22729 24.1518
lclavicle 2.23633e-014 2.94201e-014
lhumerus 77.1005 6.91351 60.543
lradius 32.0642
lwrist -22.4451
lhand -26.2199 24.651
lfingers 7.12502
lthumb 0.333338 54.6305
rfemur -30.2722 4.10797 18.1542
rtibia 27.9367
rfoot 11.4412 -13.0308
rtoes 41.1681
lfemur 8.93939 13.2247 -21.5166
ltibia 33.6505
lfoot 22.0801 1.97491
ltoes -42.2882
28
root 7.20326 18.5461 -0.547141 -5.43874 -80.7313 29.339
lowerback 3.42154 -3.09777 1.09182
upperback -9.2057 -4.22756 1.39449
thorax -11.7642 -2.17681 1.49131
lowerneck -4.54071 -1.27867 -11.2884
upperneck -7.69493 -1.21022 6.64972
head -1.59066 -0.468039 4.25354
rclavicle 4.03533e-014 7.95139e-015
rhumerus 80.5262 2.09516 -50.1793
rradius 36.7909
rwrist 4.93054
rhand -35.7463 50.9754
rfingers 7.12502
rthumb -8.86496 21.1816
lclavicle 4.03533e-014 7.95139e-015
lhumerus 77.3202 7.43884 60.358
lradius 31.2579
lwrist -23.5489
lhand -26.0719 24.7721
lfingers 7.12502
lthumb 0.476342 54.7513
rfemur -28.4304 5.07364 17.7786
rtibia 26.6771
rfoot 10.9335 -16.9916
rtoes 44.441
lfemur 9.49738 13.9389 -21.4868
ltibia 35.0507
lfoot 21.7687 2.46553
ltoes -47.6488
29
root 6.97776 18.7333 -0.533639 -4.40474 -81.0747 28.6589
lowerback 2.70507 -2.9488 1.29854
upperback -9.44454 -4.03209 1.48997
thorax -11.6097 -2.11105 1.41901
lowerneck -4.85161 -1.3354 -11.0246
upperneck -6.56593 -1.26758 6.32939
head -1.15467 -0.505236 4.06653
rclavicle -2.79292e-014 2.54444e-014
rhumerus 81.7959 1.90028 -50.0368
rradius 35.3598
rwrist 5.25533
rhand -35.0155 47.8322
rfingers 7.12502
rthumb -8.15973 18.0097
lclavicle -2.79292e-014 2.54444e-014
lhumerus 77.5814 7.7974 59.6902
lradius 30.3075
lwrist -24.3808
lhand -25.7252 25.1463
lfingers 7.12502
lthumb 0.811137 55.1245
rfemur -27.9342 5.62764 17.7779
rtibia 26.1271
rfoot 8.05234 -20.2811
rtoes 49.7495
lfemur 8.77124 14.2862 -21.5083
ltibia 36.2563
lfoot 21.8899 2.72483
ltoes -44.5401
30
root 6.74148 18.8954 -0.530058 -3.03797 -81.3656 27.8925
lowerback 1.3605 -2.81424 1.53216
upperback -9.6096 -3.89425 1.3726
thorax -11.0051 -2.09444 1.06775
lowerneck -5.05414 -1.36069 -10.3254
upperneck -5.63682 -1.30742 6.16373
head -0.811192 -0.543067 3.85646
rclavicle -6.02318e-014 -1.35174e-014
rhumerus 82.9078 1.46048 -50.8082
rradius 33.5484
rwrist 6.51269
rhand -33.4893 46.9525
rfingers 7.12502
rthumb -6.68658 17.0781
lclavicle -6.02318e-014 -1.35174e-014
lhumerus 78.092 7.85797 58.903
lradius 29.3286
lwrist -25.2719
lhand -25.0034 25.9135
lfingers 7.12502
lthumb 1.50829 55.8879
rfemur -27.8152 5.453 18.0871
rtibia 26.2803
rfoot 3.86504 -21.4065
rtoes 55.4256
lfemur 7.91735 14.536 -21.5515
ltibia 37.2241
lfoot 22.123 2.59109
ltoes -45.3793
31
root 6.51327 19.0459 -0.515333 -3.33002 -81.652 27.7573
lowerback 1.22403 -2.70074 1.69062
upperback -9.61907 -3.72312 1.50421
thorax -10.9347 -2.0201 1.09406
lowerneck -4.95054 -1.40461 -11.0438
upperneck -4.69913 -1.33125 6.50919
head -0.514028 -0.55072 4.11714
rclavicle 3.67255e-014 1.11319e-014
rhumerus 84.0125 1.33704 -50.6806
rradius 31.9464
rwrist 6.86109
rhand -31.3391 46.961
rfingers 7.12502
rthumb -4.61055 17.0312
lclavicle 3.67255e-014 1.11319e-014
lhumerus 78.3114 8.06559 59.2089
lradius 28.3694
lwrist -26.4497
lhand -23.5954 26.7198
lfingers 7.12502
lthumb 2.86815 56.6803
rfemur -26.5662 5.55168 18.1299
rtibia 26.7973
rfoot -0.816187 -21.0864
rtoes 60.0022
lfemur 8.2318 14.8122 -21.3823
ltibia 38.2914
lfoot 22.1181 2.35934
ltoes -46.8607
32
root 6.28601 19.1967 -0.508249 -3.57111 -81.8649 27.4519
lowerback 1.49606 -2.61952 1.6688
upperback -9.59262 -3.58701 1.69363
thorax -11.0551 -1.93765 1.30929
lowerneck -5.47676 -1.44558 -12.0625
upperneck -3.41753 -1.26041 7.30834
head -0.00321553 -0.510501 4.13108
rclavicle -1.2424e-014 -2.38542e-015
rhumerus 85.2313 1.21184 -50.3069
rradius 30.3505
rwrist 6.61917
rhand -29.1409 46.2241
rfingers 7.12502
rthumb -2.48777 16.2589
lclavicle -1.2424e-014 -2.38542e-015
lhumerus 78.4925 8.40944 59.6876
lradius 27.4146
lwrist -27.701
lhand -21.9661 26.289
lfingers 7.12502
lthumb 4.44154 56.2224
rfemur -25.2643 5.42941 18.1602
rtibia 27.5475
rfoot -4.6283 -20.1848
rtoes 63.6003
lfemur 8.65463 15.0955 -21.0503
ltibia 39.2815
lfoot 22.0306 2.09503
ltoes -46.9719
33
root 6.05577 19.3395 -0.507045 -2.71069 -81.9779 26.6454
lowerback 1.20004 -2.54016 1.61454
upperback -9.62672 -3.4939 1.71659
thorax -10.9092 -1.89086 1.33722
lowerneck -6.17409 -1.52596 -11.9946
upperneck -2.26649 -1.30564 7.49966
head 0.455744 -0.532988 4.16955
rclavicle 2.4699e-014 2.38542e-015
rhumerus 86.1793 0.634608 -49.5634
rradius 29.0202
rwrist 6.31012
rhand -27.8981 43.8192
rfingers 7.12502
rthumb -1.28745 13.8433
lclavicle 2.4699e-014 2.38542e-015
lhumerus 79.0016 8.8201 59.9793
lradius 26.3348
lwrist -28.4668
lhand -20.2198 23.719
lfingers 7.12502
lthumb 6.12763 53.6104
rfemur -24.7914 5.36929 18.3162
rtibia 28.4463
rfoot -3.96248 -20.3657
rtoes 62.8478
lfemur 8.35937 15.2711 -20.822
ltibia 40.1822
lfoot 21.643 1.97351
ltoes -46.7256
34
root 5.81417 19.4776 -0.496121 -1.97843 -82.016 25.9701
lowerback 0.694211 -2.48108 1.65278
upperback -9.66933 -3.42736 1.77355
thorax -10.6505 -1.86621 1.3417
lowerneck -6.36422 -1.60354 -12.0626
upperneck -1.4898 -1.39374 7.62157
head 0.726868 -0.579114 4.21217
rclavicle 3.46382e-014 1.19271e-014
rhumerus 87.1282 0.285169 -49.8373
rradius 27.3774
rwrist 7.73468
rhand -26.3586 40.6784
rfingers 7.12502
rthumb 0.19936 10.6987
lclavicle 3.46382e-014 1.19271e-014
lhumerus 79.904 9.32291 62.1464
lradius 24.8724
lwrist -29.5879
lhand -17.3608 19.4489
lfingers 7.12502
lthumb 8.88715 49.2417
rfemur -24.3556 4.23161 18.5825
rtibia 29.3396
rfoot 0.331838 -20.1869
rtoes 59.3981
lfemur 8.04384 15.1765 -20.7368
ltibia 41.0792
lfoot 21.3182 1.99997
ltoes -47.1145
35
root 5.57875 19.6019 -0.487666 -2.07275 -82.0177 25.6085
lowerback 0.586658 -2.44742 1.68127
upperback -9.53297 -3.37901 1.73897
thorax -10.4346 -1.84446 1.2699
lowerneck -6.26795 -1.54171 -12.1324
upperneck -0.814883 -1.3249 7.51418
head 0.903925 -0.553349 4.19083
rclavicle 6.44062e-014 4.77083e-015
rhumerus 88.221 0.520135 -53.85
rradius 25.3748
rwrist 13.0064
rhand -23.0207 38.8917
rfingers 7.12502
rthumb 3.42308 8.9394
lclavicle 6.44062e-014 4.77083e-015
lhumerus 79.9543 9.28335 61.8773
lradius 24.3348
lwrist -30.4382
lhand -14.8399 20.6383
lfingers 7.12502
lthumb 11.3192 50.3128
rfemur -23.2419 4.56921 18.5121
rtibia 30.2209
rfoot 1.05461 -19.9596
rtoes 58.8534
lfemur 8.27886 14.9454 -20.5648
ltibia 41.9872
lfoot 21.4182 1.77505
ltoes -45.9429
36
root 5.36619 19.7079 -0.484732 -1.75992 -82.1444 24.94
lowerback 0.669623 -2.35055 1.71526
upperback -9.48526 -3.24355 1.69251
thorax -10.4355 -1.78103 1.19054
lowerneck -6.08942 -1.56727 -12.1492
upperneck -0.18306 -1.38816 7.55175
head 1.06954 -0.593379 4.20256
rclavicle -4.32357e-015 -4.77083e-015
rhumerus 88.9289 0.349533 -55.9062
rradius 23.882
rwrist 16.3099
rhand -19.7473 37.1574
rfingers 7.12502
rthumb 6.58378 7.27974
lclavicle -4.32357e-015 -4.77083e-015
lhumerus 79.7575 9.31257 60.6761
lradius 24.0784
lwrist -30.8492
lhand -11.877 20.8633
lfingers 7.12502
lthumb 14.1755 50.3596
rfemur -22.4649 4.32862 18.7219
rtibia 31.2108
rfoot 3.82786 -19.3024
rtoes 56.0999
lfemur 8.38109 14.9813 -20.2855
ltibia 42.8787
lfoot 21.469 1.3517
ltoes -43.5949
